Coordinates
version=1
nRows=8
nColumns=42
inDegrees=yes

Units are S.I. units (second, meters, Newtons, ...)
If the header above contains a line with 'inDegrees', this indicates whether rotational values are in degrees (yes) or radians (no).

endheader
time	pelvis_tilt	pelvis_list	pelvis_rotation	pelvis_tx	pelvis_ty	pelvis_tz	hip_flexion_r	hip_adduction_r	hip_rotation_r	knee_angle_r	knee_adduction_r	knee_angle_r_beta	ankle_angle_r	subtalar_angle_r	mtp_angle_r	hip_flexion_l	hip_adduction_l	hip_rotation_l	knee_angle_l	knee_adduction_l	knee_angle_l_beta	ankle_angle_l	subtalar_angle_l	mtp_angle_l	lumbar_extension	lumbar_bending	lumbar_rotation	arm_flex_r	arm_add_r	arm_rot_r	elbow_flex_r	pro_sup_r	wrist_flex_r	wrist_dev_r	arm_flex_l	arm_add_l	arm_rot_l	elbow_flex_l	pro_sup_l	wrist_flex_l	wrist_dev_l
      0.75000000	     21.73799392	      2.06639385	     -0.44294573	     -1.20716099	      0.89077924	     -0.00853039	    -26.40191195	     -1.47121080	    -25.17087568	     26.99486377	     -3.41241547	      0.47114925	     32.98366153	     22.27173088	     -8.12618800	      8.95014869	      1.78448062	     -3.88804231	     17.66391408	      0.33046173	      0.30829346	      8.08859407	    -13.22993256	     -8.12618800	    -44.01841300	     -2.90127419	      0.70671324	     23.38049186	    -10.35948744	     -0.88854161	     40.60615691	     90.00000001	      0.00000000	      0.00000000	      6.06104902	     -3.36009864	    -34.33477208	     36.17002979	     90.00000001	      0.00000000	      0.00000000
      0.76000000	     21.68877733	      1.96996738	     -0.62076378	     -1.19722683	      0.88936586	     -0.00946638	    -26.99295869	     -1.56885072	    -25.19018866	     27.14893211	     -3.51520163	      0.47383825	     32.97579144	     22.25864243	     -8.12539430	      8.89356075	      1.83883654	     -3.72867735	     17.89894496	      0.36549880	      0.31239552	      8.05830271	    -13.30821432	     -8.12539430	    -43.75468723	     -2.90564097	      0.85597340	     23.34098810	    -10.31777179	     -0.88098245	     40.60673312	     90.00000001	      0.00000000	      0.00000000	      5.73772123	     -3.22983297	    -34.37322312	     36.04170345	     90.00000001	      0.00000000	      0.00000000
      0.77000000	     21.83546314	      1.94108862	     -0.64879991	     -1.18726620	      0.88815007	     -0.01068318	    -27.89374982	     -1.80757453	    -25.52330652	     27.26499751	     -3.37634612	      0.47586398	     32.72750504	     22.50883603	     -8.11352242	      9.10157734	      1.88685249	     -3.84859092	     19.40149418	      0.51889293	      0.33861995	      7.85157701	    -14.69430398	     -8.11352242	    -43.71758631	     -2.87840795	      0.88216105	     23.28869253	    -10.30808833	     -0.83947460	     40.68795546	     90.00000001	      0.00000000	      0.00000000	      5.59817466	     -3.14182983	    -34.62328633	     35.84246799	     90.00000001	      0.00000000	      0.00000000
      0.78000000	     21.87481767	      1.89490560	     -0.81957561	     -1.17720213	      0.88694169	     -0.01171722	    -28.53651836	     -2.02064988	    -25.57616201	     27.55393687	     -3.45535470	      0.48090692	     32.62557622	     22.55665536	     -8.11077228	      8.99124230	      1.96637748	     -3.50896776	     20.14671811	      0.71092043	      0.35162656	      7.71278184	    -14.92258352	     -8.11077228	    -43.55763566	     -2.93974242	      1.05677191	     23.18041106	    -10.30730488	     -0.85732442	     40.65297604	     90.00000001	      0.00000000	      0.00000000	      5.38981602	     -3.01495371	    -34.69440149	     35.71119423	     90.00000001	      0.00000000	      0.00000000
      0.79000000	     21.69877152	      1.82446878	     -0.85746305	     -1.16696894	      0.88533941	     -0.01306129	    -28.89400840	     -2.26377170	    -25.86217047	     28.05371858	     -3.44676098	      0.48962976	     32.29399311	     22.73571567	     -8.10512323	      9.39150453	      1.97501725	     -3.36348256	     21.56318844	      0.96095108	      0.37634864	      7.41701823	    -15.60959745	     -8.10512323	    -43.15238335	     -2.88345669	      1.14709941	     22.96080421	    -10.28390729	     -0.95707554	     40.67749371	     90.00000001	      0.00000000	      0.00000000	      5.16687452	     -2.89960757	    -34.85415890	     35.50515301	     90.00000001	      0.00000000	      0.00000000
      0.80000000	     21.39927579	      1.68456962	     -0.86737240	     -1.15661935	      0.88357558	     -0.01442741	    -29.04657064	     -2.38552994	    -26.19956249	     28.62028854	     -3.64208656	      0.49951827	     31.97280071	     23.05393771	     -8.09712662	      9.94329613	      1.92505420	     -3.16005678	     23.08518184	      1.16131528	      0.40291243	      7.03105144	    -16.22940833	     -8.09712662	    -42.60487002	     -2.75855200	      1.27159988	     22.68158264	    -10.26404985	     -1.16295014	     40.68560485	     90.00000001	      0.00000000	      0.00000000	      4.93940447	     -2.78678253	    -35.07631910	     35.27179807	     90.00000001	      0.00000000	      0.00000000
      0.81000000	     21.17820447	      1.62504464	     -0.92904529	     -1.14618306	      0.88213672	     -0.01574605	    -29.25821960	     -2.61680101	    -26.38105262	     29.24086999	     -3.79830589	      0.51034946	     31.62487895	     23.29369421	     -8.09125459	     10.25426335	      1.96513863	     -2.76790752	     24.39103043	      1.45577223	      0.42570379	      6.69383067	    -16.46504268	     -8.09125459	    -42.14186936	     -2.75792447	      1.43786813	     22.34650481	    -10.24196951	     -1.36946193	     40.62925163	     90.00000001	      0.00000000	      0.00000000	      4.75750277	     -2.65464212	    -35.23022939	     35.08392825	     90.00000001	      0.00000000	      0.00000000
      0.82000000	     20.85549341	      1.55669085	     -0.91999021	     -1.13556781	      0.88058368	     -0.01721290	    -29.33654033	     -2.79100181	    -26.65232948	     29.88903509	     -4.06915269	      0.52166207	     31.10118387	     23.65780447	     -8.08202109	     10.78826419	      2.02809265	     -2.47060539	     25.95688206	      1.63583364	      0.45303306	      6.34210535	    -16.80368335	     -8.08202109	    -41.55527818	     -2.70487336	      1.53477024	     21.93257501	    -10.15914217	     -1.75715230	     40.61386713	     90.00000001	      0.00000000	      0.00000000	      4.56164794	     -2.53792173	    -35.45240887	     34.83700463	     90.00000001	      0.00000000	      0.00000000
